<?xml version="1.0" standalone="no"?>
<!DOCTYPE svg PUBLIC "-//W3C//DTD SVG 20010904//EN"
 "http://www.w3.org/TR/2001/REC-SVG-20010904/DTD/svg10.dtd">
<svg version="1.0" xmlns="http://www.w3.org/2000/svg"
 width="2083.000000pt" height="2083.000000pt" viewBox="0 0 2083.000000 2083.000000"
 preserveAspectRatio="xMidYMid meet">
<metadata>
Created by potrace 1.11, written by Peter Selinger 2001-2013
</metadata>
<g transform="translate(0.000000,2083.000000) scale(0.100000,-0.100000)"
fill="#000000" stroke="none">
<path d="M13780 16405 c-924 -50 -1897 -351 -2710 -840 -245 -147 -438 -277
-576 -387 -41 -32 -78 -58 -83 -58 -4 0 -30 17 -57 39 -116 91 -306 217 -549
363 -848 509 -1775 791 -2772 843 -273 15 -330 15 -600 1 -800 -41 -1543 -227
-2259 -565 -638 -301 -1184 -683 -1668 -1167 -495 -494 -879 -1040 -1180
-1679 -425 -900 -612 -1838 -567 -2846 43 -982 331 -1932 844 -2789 282 -470
502 -756 870 -1129 377 -381 704 -636 1182 -923 1187 -711 2569 -987 3940
-787 784 115 1539 384 2216 791 229 137 443 282 594 400 l59 47 31 -24 c251
-200 737 -494 1100 -665 1251 -589 2646 -726 3990 -393 1067 264 2020 800
2790 1568 366 366 611 681 891 1145 511 848 798 1790 849 2785 14 271 14 329
0 605 -41 800 -226 1535 -568 2260 -134 285 -339 640 -510 885 -375 537 -888
1051 -1432 1436 -66 47 -237 155 -381 241 -834 501 -1777 792 -2739 843 -311
17 -383 17 -705 0z"/>
</g>
</svg>
